<svg width="366" height="366" viewBox="0 0 366 366" fill="none" xmlns="http://www.w3.org/2000/svg">
<path d="M365.623 141.246L366 140.869V366H0V0H224.377L365.623 141.246Z" fill="white"/>
<path d="M49.5655 290V71.8182H101.661V154.382H102.726C104.857 149.411 107.875 144.616 111.781 140C115.759 135.384 120.801 131.619 126.909 128.707C133.088 125.724 140.475 124.233 149.068 124.233C160.432 124.233 171.05 127.216 180.922 133.182C190.865 139.148 198.891 148.345 204.999 160.774C211.107 173.203 214.161 189.041 214.161 208.288C214.161 226.825 211.213 242.344 205.318 254.844C199.494 267.344 191.611 276.719 181.668 282.969C171.796 289.219 160.823 292.344 148.749 292.344C140.51 292.344 133.372 290.994 127.335 288.295C121.298 285.597 116.22 282.045 112.101 277.642C108.053 273.239 104.928 268.516 102.726 263.473H101.128V290H49.5655ZM100.595 208.182C100.595 216.989 101.767 224.659 104.111 231.193C106.526 237.727 109.97 242.805 114.445 246.428C118.99 249.979 124.423 251.754 130.744 251.754C137.137 251.754 142.57 249.979 147.044 246.428C151.519 242.805 154.892 237.727 157.165 231.193C159.509 224.659 160.681 216.989 160.681 208.182C160.681 199.375 159.509 191.74 157.165 185.277C154.892 178.814 151.519 173.807 147.044 170.256C142.641 166.705 137.208 164.929 130.744 164.929C124.352 164.929 118.919 166.669 114.445 170.149C109.97 173.629 106.526 178.601 104.111 185.064C101.767 191.527 100.595 199.233 100.595 208.182Z" fill="black"/>
<path d="M281.107 293.089C273.436 293.089 266.866 290.391 261.398 284.993C256 279.595 253.337 273.061 253.408 265.391C253.337 257.862 256 251.435 261.398 246.108C266.866 240.71 273.436 238.011 281.107 238.011C288.351 238.011 294.743 240.71 300.283 246.108C305.893 251.435 308.734 257.862 308.805 265.391C308.734 270.504 307.385 275.156 304.757 279.347C302.2 283.537 298.827 286.875 294.636 289.361C290.517 291.847 286.007 293.089 281.107 293.089Z" fill="#0015FF"/>
</svg>
